<svg height="100%" style="fill-rule:evenodd;clip-rule:evenodd;stroke-linecap:round;stroke-linejoin:round;" xmlns:xlink="http://www.w3.org/1999/xlink" xmlns="http://www.w3.org/2000/svg" xml:space="preserve" width="100%" version="1.1" viewBox="0 0 20 18.3">
<g id="heart">
    <path d="M10.0272+18.2324L3.02188+11.9329C3.02188+11.9329+1.64413+10.5264+1.04225+9.46607C0.354495+8.25449+0.131928+6.81912+0.131928+6.81912C0.131928+6.81912-0.19419+5.11873+0.179046+3.67693C0.552282+2.23514+1.57718+1.37561+1.57718+1.37561C1.57718+1.37561+2.40859+0.510633+3.85368+0.246104C4.19656+0.183338+5.75474-0.311884+7.37221+0.455392C9.12906+1.28878+10.0153+2.91892+10.0153+2.91892C10.0153+2.91892+10.7431+1.706+11.6451+1.03603C12.547+0.366053+13.5564+0.137154+13.5564+0.137154C13.5564+0.137154+14.497-0.137418+15.9341+0.0904186C17.2544+0.306572+18.1972+1.15366+18.1972+1.15366C18.1972+1.15366+19.2575+2.27108+19.6412+3.18814C20.025+4.1052+19.9997+5.22415+19.9997+5.22415C19.9997+5.22415+20.0067+6.20979+19.8503+7.12484C19.6939+8.0399+19.386+8.82731+19.386+8.82731C19.386+8.82731+18.895+9.74472+18.3252+10.5019C17.7555+11.259+17.1015+11.8529+17.1015+11.8529C17.1015+11.8529+16.4998+12.4247+14.7585+14.0031C13.0172+15.5815+10.0272+18.2324+10.0272+18.2324Z" opacity="1" fill="#b4b4b4"/>
</g>
</svg>
